<svg xmlns="http://www.w3.org/2000/svg" width="800" height="400">
  <style>
    .line { fill: none; stroke-width: 2; }
    .dashed { stroke-dasharray: 5, 5; }
    .label { font-size: 18px; text-anchor: middle; }
    .axis { stroke: #000; stroke-width: 1; }
    .grid { stroke: #ccc; stroke-width: 0.5; }
    .point { fill-opacity: 0.8; }
    .title { font-size: 22px; font-weight: bold; text-anchor: middle; }
  </style>
  <!-- 軸 -->
  <line x1="50" y1="350" x2="750" y2="350" class="axis" />
  <line x1="50" y1="50" x2="50" y2="350" class="axis" />
  <!-- タイトル -->
  <text x="400" y="25" class="title">REXML Performance benchmarks</text>
  <text x="400" y="388" class="label">rexml version</text>
  <text x="12" y="200" class="label" transform="rotate(-90, 12, 200)">i/s</text>
<line x1="50" y1="350.0" x2="750" y2="350.0" class="grid" /><text x="30" y="355.0" class="label" text-anchor="end">25.0</text><line x1="50" y1="284.1463414634146" x2="750" y2="284.1463414634146" class="grid" /><text x="30" y="289.1463414634146" class="label" text-anchor="end">34.0</text><line x1="50" y1="218.29268292682926" x2="750" y2="218.29268292682926" class="grid" /><text x="30" y="223.29268292682926" class="label" text-anchor="end">43.0</text><line x1="50" y1="152.4390243902439" x2="750" y2="152.4390243902439" class="grid" /><text x="30" y="157.4390243902439" class="label" text-anchor="end">52.0</text><line x1="50" y1="86.58536585365852" x2="750" y2="86.58536585365852" class="grid" /><text x="30" y="91.58536585365852" class="label" text-anchor="end">61.0</text><line x1="50" y1="50" x2="50" y2="350" class="grid" /><text x="50" y="370" class="label">3.2.6</text><line x1="400" y1="50" x2="400" y2="350" class="grid" /><text x="400" y="370" class="label">3.4.0</text><line x1="750" y1="50" x2="750" y2="350" class="grid" /><text x="750" y="370" class="label">3.4.1</text><polyline points="50,220.40731707317076 400,94.77317073170732 750,50.790243902439045" class="line dashed" stroke="#4CAF50" /><circle cx="50" cy="220.40731707317076" r="4" fill="#4CAF50" class="point" /><circle cx="400" cy="94.77317073170732" r="4" fill="#4CAF50" class="point" /><circle cx="750" cy="50.790243902439045" r="4" fill="#4CAF50" class="point" /><polyline points="50,247.38536585365853 400,114.02439024390242 750,80.2268292682927" class="line dashed" stroke="#2196F3" /><circle cx="50" cy="247.38536585365853" r="4" fill="#2196F3" class="point" /><circle cx="400" cy="114.02439024390242" r="4" fill="#2196F3" class="point" /><circle cx="750" cy="80.2268292682927" r="4" fill="#2196F3" class="point" /><polyline points="50,265.34878048780485 400,162.22926829268292 750,143.84146341463418" class="line dashed" stroke="#FFC107" /><circle cx="50" cy="265.34878048780485" r="4" fill="#FFC107" class="point" /><circle cx="400" cy="162.22926829268292" r="4" fill="#FFC107" class="point" /><circle cx="750" cy="143.84146341463418" r="4" fill="#FFC107" class="point" /><polyline points="50,343.4439024390244 400,301.8609756097561 750,284.67317073170733" class="line dashed" stroke="#FF5722" /><circle cx="50" cy="343.4439024390244" r="4" fill="#FF5722" class="point" /><circle cx="400" cy="301.8609756097561" r="4" fill="#FF5722" class="point" /><circle cx="750" cy="284.67317073170733" r="4" fill="#FF5722" class="point" /><line x1="55" y1="50" x2="75" y2="50" class="line dashed" stroke="#4CAF50" /><text x="115" y="54" class="label" text-anchor="start">pull(JIT)</text><line x1="55" y1="70" x2="75" y2="70" class="line dashed" stroke="#2196F3" /><text x="115" y="74" class="label" text-anchor="start">stream(JIT)</text><line x1="55" y1="90" x2="75" y2="90" class="line dashed" stroke="#FFC107" /><text x="115" y="94" class="label" text-anchor="start">sax2(JIT)</text><line x1="55" y1="110" x2="75" y2="110" class="line dashed" stroke="#FF5722" /><text x="115" y="114" class="label" text-anchor="start">dom(JIT)</text></svg>
