<svg xmlns="http://www.w3.org/2000/svg" width="800" height="400">
  <style>
    .line { fill: none; stroke-width: 2; }
    .dashed { stroke-dasharray: 5, 5; }
    .label { font-size: 18px; text-anchor: middle; }
    .axis { stroke: #000; stroke-width: 1; }
    .grid { stroke: #ccc; stroke-width: 0.5; }
    .point { fill-opacity: 0.8; }
    .title { font-size: 22px; font-weight: bold; text-anchor: middle; }
  </style>
  <!-- 軸 -->
  <line x1="50" y1="350" x2="750" y2="350" class="axis" />
  <line x1="50" y1="50" x2="50" y2="350" class="axis" />
  <!-- タイトル -->
  <text x="400" y="25" class="title">REXML Performance benchmarks</text>
  <text x="400" y="388" class="label">rexml version</text>
  <text x="12" y="200" class="label" transform="rotate(-90, 12, 200)">i/s</text>
<line x1="50" y1="350.0" x2="750" y2="350.0" class="grid" /><text x="30" y="355.0" class="label" text-anchor="end">25.0</text><line x1="50" y1="290.0" x2="750" y2="290.0" class="grid" /><text x="30" y="295.0" class="label" text-anchor="end">32.0</text><line x1="50" y1="230.0" x2="750" y2="230.0" class="grid" /><text x="30" y="235.0" class="label" text-anchor="end">39.0</text><line x1="50" y1="170.0" x2="750" y2="170.0" class="grid" /><text x="30" y="175.0" class="label" text-anchor="end">46.0</text><line x1="50" y1="110.0" x2="750" y2="110.0" class="grid" /><text x="30" y="115.0" class="label" text-anchor="end">53.0</text><line x1="50" y1="50.0" x2="750" y2="50.0" class="grid" /><text x="30" y="55.0" class="label" text-anchor="end">60.0</text><line x1="50" y1="50" x2="50" y2="350" class="grid" /><text x="50" y="370" class="label">3.2.6</text><line x1="750" y1="50" x2="750" y2="350" class="grid" /><text x="750" y="370" class="label">3.4.0</text><polyline points="50,198.1914285714286 750,51.01999999999998" class="line dashed" stroke="#4CAF50" /><circle cx="50" cy="198.1914285714286" r="4" fill="#4CAF50" class="point" /><circle cx="750" cy="51.01999999999998" r="4" fill="#4CAF50" class="point" /><polyline points="50,229.7942857142857 750,73.57142857142861" class="line dashed" stroke="#2196F3" /><circle cx="50" cy="229.7942857142857" r="4" fill="#2196F3" class="point" /><circle cx="750" cy="73.57142857142861" r="4" fill="#2196F3" class="point" /><polyline points="50,250.83714285714285 750,130.04000000000002" class="line dashed" stroke="#FFC107" /><circle cx="50" cy="250.83714285714285" r="4" fill="#FFC107" class="point" /><circle cx="750" cy="130.04000000000002" r="4" fill="#FFC107" class="point" /><polyline points="50,342.32 750,293.6085714285714" class="line dashed" stroke="#FF5722" /><circle cx="50" cy="342.32" r="4" fill="#FF5722" class="point" /><circle cx="750" cy="293.6085714285714" r="4" fill="#FF5722" class="point" /><line x1="55" y1="50" x2="75" y2="50" class="line dashed" stroke="#4CAF50" /><text x="115" y="54" class="label" text-anchor="start">pull(JIT)</text><line x1="55" y1="70" x2="75" y2="70" class="line dashed" stroke="#2196F3" /><text x="115" y="74" class="label" text-anchor="start">stream(JIT)</text><line x1="55" y1="90" x2="75" y2="90" class="line dashed" stroke="#FFC107" /><text x="115" y="94" class="label" text-anchor="start">sax2(JIT)</text><line x1="55" y1="110" x2="75" y2="110" class="line dashed" stroke="#FF5722" /><text x="115" y="114" class="label" text-anchor="start">dom(JIT)</text></svg>
