<svg xmlns="http://www.w3.org/2000/svg" width="800" height="400">
  <style>
    .line { fill: none; stroke-width: 2; }
    .dashed { stroke-dasharray: 5, 5; }
    .label { font-size: 18px; text-anchor: middle; }
    .axis { stroke: #000; stroke-width: 1; }
    .grid { stroke: #ccc; stroke-width: 0.5; }
    .point { fill-opacity: 0.8; }
    .title { font-size: 22px; font-weight: bold; text-anchor: middle; }
  </style>
  <!-- 軸 -->
  <line x1="50" y1="350" x2="750" y2="350" class="axis" />
  <line x1="50" y1="50" x2="50" y2="350" class="axis" />
  <!-- タイトル -->
  <text x="400" y="25" class="title">REXML Performance benchmarks</text>
  <text x="400" y="388" class="label">rexml version</text>
  <text x="12" y="200" class="label" transform="rotate(-90, 12, 200)">i/s</text>
<line x1="50" y1="350.0" x2="750" y2="350.0" class="grid" /><text x="30" y="355.0" class="label" text-anchor="end">18.0</text><line x1="50" y1="287.5" x2="750" y2="287.5" class="grid" /><text x="30" y="292.5" class="label" text-anchor="end">28.0</text><line x1="50" y1="225.0" x2="750" y2="225.0" class="grid" /><text x="30" y="230.0" class="label" text-anchor="end">38.0</text><line x1="50" y1="162.5" x2="750" y2="162.5" class="grid" /><text x="30" y="167.5" class="label" text-anchor="end">48.0</text><line x1="50" y1="100.0" x2="750" y2="100.0" class="grid" /><text x="30" y="105.0" class="label" text-anchor="end">58.0</text><line x1="50" y1="50" x2="50" y2="350" class="grid" /><text x="50" y="370" class="label">3.2.6</text><line x1="400" y1="50" x2="400" y2="350" class="grid" /><text x="400" y="370" class="label">3.4.0</text><line x1="750" y1="50" x2="750" y2="350" class="grid" /><text x="750" y="370" class="label">3.4.1</text><polyline points="50,195.55625 400,88.24375000000003 750,50.67500000000001" class="line dashed" stroke="#4CAF50" /><circle cx="50" cy="195.55625" r="4" fill="#4CAF50" class="point" /><circle cx="400" cy="88.24375000000003" r="4" fill="#4CAF50" class="point" /><circle cx="750" cy="50.67500000000001" r="4" fill="#4CAF50" class="point" /><polyline points="50,218.6 400,104.6875 750,75.81875000000002" class="line dashed" stroke="#2196F3" /><circle cx="50" cy="218.6" r="4" fill="#2196F3" class="point" /><circle cx="400" cy="104.6875" r="4" fill="#2196F3" class="point" /><circle cx="750" cy="75.81875000000002" r="4" fill="#2196F3" class="point" /><polyline points="50,233.94374999999997 400,145.8625 750,130.15625" class="line dashed" stroke="#FFC107" /><circle cx="50" cy="233.94374999999997" r="4" fill="#FFC107" class="point" /><circle cx="400" cy="145.8625" r="4" fill="#FFC107" class="point" /><circle cx="750" cy="130.15625" r="4" fill="#FFC107" class="point" /><polyline points="50,300.65 400,265.13125 750,250.45000000000002" class="line dashed" stroke="#FF5722" /><circle cx="50" cy="300.65" r="4" fill="#FF5722" class="point" /><circle cx="400" cy="265.13125" r="4" fill="#FF5722" class="point" /><circle cx="750" cy="250.45000000000002" r="4" fill="#FF5722" class="point" /><polyline points="50,275.36875 400,255.73125000000002 750,247.7125" class="line" stroke="#4CAF50" /><circle cx="50" cy="275.36875" r="4" fill="#4CAF50" class="point" /><circle cx="400" cy="255.73125000000002" r="4" fill="#4CAF50" class="point" /><circle cx="750" cy="247.7125" r="4" fill="#4CAF50" class="point" /><polyline points="50,286.80625 400,258.5875 750,248.4375" class="line" stroke="#2196F3" /><circle cx="50" cy="286.80625" r="4" fill="#2196F3" class="point" /><circle cx="400" cy="258.5875" r="4" fill="#2196F3" class="point" /><circle cx="750" cy="248.4375" r="4" fill="#2196F3" class="point" /><polyline points="50,301.11875 400,283.7875 750,273.69375" class="line" stroke="#FFC107" /><circle cx="50" cy="301.11875" r="4" fill="#FFC107" class="point" /><circle cx="400" cy="283.7875" r="4" fill="#FFC107" class="point" /><circle cx="750" cy="273.69375" r="4" fill="#FFC107" class="point" /><polyline points="50,348.84375 400,344.73125 750,340.83125" class="line" stroke="#FF5722" /><circle cx="50" cy="348.84375" r="4" fill="#FF5722" class="point" /><circle cx="400" cy="344.73125" r="4" fill="#FF5722" class="point" /><circle cx="750" cy="340.83125" r="4" fill="#FF5722" class="point" /><line x1="55" y1="50" x2="75" y2="50" class="line dashed" stroke="#4CAF50" /><text x="115" y="54" class="label" text-anchor="start">pull(JIT)</text><line x1="55" y1="70" x2="75" y2="70" class="line dashed" stroke="#2196F3" /><text x="115" y="74" class="label" text-anchor="start">stream(JIT)</text><line x1="55" y1="90" x2="75" y2="90" class="line dashed" stroke="#FFC107" /><text x="115" y="94" class="label" text-anchor="start">sax2(JIT)</text><line x1="55" y1="110" x2="75" y2="110" class="line dashed" stroke="#FF5722" /><text x="115" y="114" class="label" text-anchor="start">dom(JIT)</text><line x1="55" y1="130" x2="75" y2="130" class="line" stroke="#4CAF50" /><text x="115" y="134" class="label" text-anchor="start">pull</text><line x1="55" y1="150" x2="75" y2="150" class="line" stroke="#2196F3" /><text x="115" y="154" class="label" text-anchor="start">stream</text><line x1="55" y1="170" x2="75" y2="170" class="line" stroke="#FFC107" /><text x="115" y="174" class="label" text-anchor="start">sax2</text><line x1="55" y1="190" x2="75" y2="190" class="line" stroke="#FF5722" /><text x="115" y="194" class="label" text-anchor="start">dom</text></svg>
