<svg xmlns="http://www.w3.org/2000/svg" width="800" height="400">
  <style>
    .line { fill: none; stroke-width: 2; }
    .dashed { stroke-dasharray: 5, 5; }
    .label { font-size: 18px; text-anchor: middle; }
    .axis { stroke: #000; stroke-width: 1; }
    .grid { stroke: #ccc; stroke-width: 0.5; }
    .point { fill-opacity: 0.8; }
    .title { font-size: 22px; font-weight: bold; text-anchor: middle; }
  </style>
  <!-- 軸 -->
  <line x1="50" y1="350" x2="750" y2="350" class="axis" />
  <line x1="50" y1="50" x2="50" y2="350" class="axis" />
  <!-- タイトル -->
  <text x="400" y="25" class="title">REXML Performance benchmarks</text>
  <text x="400" y="388" class="label">rexml version</text>
  <text x="12" y="200" class="label" transform="rotate(-90, 12, 200)">i/s</text>
<line x1="50" y1="350.0" x2="750" y2="350.0" class="grid" /><text x="30" y="355.0" class="label" text-anchor="end">18.0</text><line x1="50" y1="279.4117647058823" x2="750" y2="279.4117647058823" class="grid" /><text x="30" y="284.4117647058823" class="label" text-anchor="end">22.0</text><line x1="50" y1="208.8235294117647" x2="750" y2="208.8235294117647" class="grid" /><text x="30" y="213.8235294117647" class="label" text-anchor="end">26.0</text><line x1="50" y1="138.23529411764704" x2="750" y2="138.23529411764704" class="grid" /><text x="30" y="143.23529411764704" class="label" text-anchor="end">30.0</text><line x1="50" y1="67.64705882352939" x2="750" y2="67.64705882352939" class="grid" /><text x="30" y="72.64705882352939" class="label" text-anchor="end">34.0</text><line x1="50" y1="50" x2="50" y2="350" class="grid" /><text x="50" y="370" class="label">3.2.6</text><line x1="400" y1="50" x2="400" y2="350" class="grid" /><text x="400" y="370" class="label">3.4.0</text><line x1="750" y1="50" x2="750" y2="350" class="grid" /><text x="750" y="370" class="label">3.4.1</text><polyline points="50,139.27647058823533 400,83.82941176470592 750,61.188235294117646" class="line" stroke="#4CAF50" /><circle cx="50" cy="139.27647058823533" r="4" fill="#4CAF50" class="point" /><circle cx="400" cy="83.82941176470592" r="4" fill="#4CAF50" class="point" /><circle cx="750" cy="61.188235294117646" r="4" fill="#4CAF50" class="point" /><polyline points="50,171.5705882352941 400,91.89411764705886 750,63.23529411764707" class="line" stroke="#2196F3" /><circle cx="50" cy="171.5705882352941" r="4" fill="#2196F3" class="point" /><circle cx="400" cy="91.89411764705886" r="4" fill="#2196F3" class="point" /><circle cx="750" cy="63.23529411764707" r="4" fill="#2196F3" class="point" /><polyline points="50,211.98235294117643 400,163.0470588235294 750,134.5470588235294" class="line" stroke="#FFC107" /><circle cx="50" cy="211.98235294117643" r="4" fill="#FFC107" class="point" /><circle cx="400" cy="163.0470588235294" r="4" fill="#FFC107" class="point" /><circle cx="750" cy="134.5470588235294" r="4" fill="#FFC107" class="point" /><polyline points="50,346.7352941176471 400,335.1235294117647 750,324.11176470588236" class="line" stroke="#FF5722" /><circle cx="50" cy="346.7352941176471" r="4" fill="#FF5722" class="point" /><circle cx="400" cy="335.1235294117647" r="4" fill="#FF5722" class="point" /><circle cx="750" cy="324.11176470588236" r="4" fill="#FF5722" class="point" /><line x1="55" y1="50" x2="75" y2="50" class="line" stroke="#4CAF50" /><text x="115" y="54" class="label" text-anchor="start">pull</text><line x1="55" y1="70" x2="75" y2="70" class="line" stroke="#2196F3" /><text x="115" y="74" class="label" text-anchor="start">stream</text><line x1="55" y1="90" x2="75" y2="90" class="line" stroke="#FFC107" /><text x="115" y="94" class="label" text-anchor="start">sax2</text><line x1="55" y1="110" x2="75" y2="110" class="line" stroke="#FF5722" /><text x="115" y="114" class="label" text-anchor="start">dom</text></svg>
