<svg xmlns="http://www.w3.org/2000/svg" width="800" height="400">
  <style>
    .line { fill: none; stroke-width: 2; }
    .dashed { stroke-dasharray: 5, 5; }
    .label { font-size: 18px; text-anchor: middle; }
    .axis { stroke: #000; stroke-width: 1; }
    .grid { stroke: #ccc; stroke-width: 0.5; }
    .point { fill-opacity: 0.8; }
    .title { font-size: 22px; font-weight: bold; text-anchor: middle; }
  </style>
  <!-- 軸 -->
  <line x1="50" y1="350" x2="750" y2="350" class="axis" />
  <line x1="50" y1="50" x2="50" y2="350" class="axis" />
  <!-- タイトル -->
  <text x="400" y="25" class="title">REXML Performance benchmarks</text>
  <text x="400" y="388" class="label">rexml version</text>
  <text x="12" y="200" class="label" transform="rotate(-90, 12, 200)">i/s</text>
<line x1="50" y1="350.0" x2="750" y2="350.0" class="grid" /><text x="30" y="355.0" class="label" text-anchor="end">16.0</text><line x1="50" y1="288.8888888888889" x2="750" y2="288.8888888888889" class="grid" /><text x="30" y="293.8888888888889" class="label" text-anchor="end">27.0</text><line x1="50" y1="227.77777777777777" x2="750" y2="227.77777777777777" class="grid" /><text x="30" y="232.77777777777777" class="label" text-anchor="end">38.0</text><line x1="50" y1="166.66666666666666" x2="750" y2="166.66666666666666" class="grid" /><text x="30" y="171.66666666666666" class="label" text-anchor="end">49.0</text><line x1="50" y1="105.55555555555557" x2="750" y2="105.55555555555557" class="grid" /><text x="30" y="110.55555555555557" class="label" text-anchor="end">60.0</text><line x1="50" y1="50" x2="50" y2="350" class="grid" /><text x="50" y="370" class="label">3.2.6</text><line x1="190" y1="50" x2="190" y2="350" class="grid" /><text x="190" y="370" class="label">RubyKaigi2024LT</text><line x1="330" y1="50" x2="330" y2="350" class="grid" /><text x="330" y="370" class="label">3.2.7</text><line x1="470" y1="50" x2="470" y2="350" class="grid" /><text x="470" y="370" class="label">3.2.9</text><line x1="610" y1="50" x2="610" y2="350" class="grid" /><text x="610" y="370" class="label">3.4.0</text><line x1="750" y1="50" x2="750" y2="350" class="grid" /><text x="750" y="370" class="label">3.4.1</text><polyline points="50,201.60555555555555 190,50.93888888888887 330,184.33888888888887 470,111.03888888888889 610,106.21666666666667 750,72.82222222222225" class="line dashed" stroke="#4CAF50" /><circle cx="50" cy="201.60555555555555" r="4" fill="#4CAF50" class="point" /><circle cx="190" cy="50.93888888888887" r="4" fill="#4CAF50" class="point" /><circle cx="330" cy="184.33888888888887" r="4" fill="#4CAF50" class="point" /><circle cx="470" cy="111.03888888888889" r="4" fill="#4CAF50" class="point" /><circle cx="610" cy="106.21666666666667" r="4" fill="#4CAF50" class="point" /><circle cx="750" cy="72.82222222222225" r="4" fill="#4CAF50" class="point" /><polyline points="50,222.08888888888887 190,94.91111111111113 330,207.19444444444446 470,146.93333333333334 610,120.83333333333334 750,95.17222222222222" class="line dashed" stroke="#2196F3" /><circle cx="50" cy="222.08888888888887" r="4" fill="#2196F3" class="point" /><circle cx="190" cy="94.91111111111113" r="4" fill="#2196F3" class="point" /><circle cx="330" cy="207.19444444444446" r="4" fill="#2196F3" class="point" /><circle cx="470" cy="146.93333333333334" r="4" fill="#2196F3" class="point" /><circle cx="610" cy="120.83333333333334" r="4" fill="#2196F3" class="point" /><circle cx="750" cy="95.17222222222222" r="4" fill="#2196F3" class="point" /><polyline points="50,235.72777777777776 190,129.8888888888889 330,229.7111111111111 470,184.7444444444444 610,157.43333333333334 750,143.47222222222223" class="line dashed" stroke="#FFC107" /><circle cx="50" cy="235.72777777777776" r="4" fill="#FFC107" class="point" /><circle cx="190" cy="129.8888888888889" r="4" fill="#FFC107" class="point" /><circle cx="330" cy="229.7111111111111" r="4" fill="#FFC107" class="point" /><circle cx="470" cy="184.7444444444444" r="4" fill="#FFC107" class="point" /><circle cx="610" cy="157.43333333333334" r="4" fill="#FFC107" class="point" /><circle cx="750" cy="143.47222222222223" r="4" fill="#FFC107" class="point" /><polyline points="50,295.02222222222224 190,245.47222222222223 330,290.01666666666665 470,264.3611111111111 610,263.45 750,250.4" class="line dashed" stroke="#FF5722" /><circle cx="50" cy="295.02222222222224" r="4" fill="#FF5722" class="point" /><circle cx="190" cy="245.47222222222223" r="4" fill="#FF5722" class="point" /><circle cx="330" cy="290.01666666666665" r="4" fill="#FF5722" class="point" /><circle cx="470" cy="264.3611111111111" r="4" fill="#FF5722" class="point" /><circle cx="610" cy="263.45" r="4" fill="#FF5722" class="point" /><circle cx="750" cy="250.4" r="4" fill="#FF5722" class="point" /><polyline points="50,272.55 190,245.02777777777777 330,291.7888888888889 470,276.78333333333336 610,255.09444444444443 750,247.96666666666667" class="line" stroke="#4CAF50" /><circle cx="50" cy="272.55" r="4" fill="#4CAF50" class="point" /><circle cx="190" cy="245.02777777777777" r="4" fill="#4CAF50" class="point" /><circle cx="330" cy="291.7888888888889" r="4" fill="#4CAF50" class="point" /><circle cx="470" cy="276.78333333333336" r="4" fill="#4CAF50" class="point" /><circle cx="610" cy="255.09444444444443" r="4" fill="#4CAF50" class="point" /><circle cx="750" cy="247.96666666666667" r="4" fill="#4CAF50" class="point" /><polyline points="50,282.71666666666664 190,247.68888888888893 330,295.72777777777776 470,279.3611111111111 610,257.6333333333333 750,248.61111111111111" class="line" stroke="#2196F3" /><circle cx="50" cy="282.71666666666664" r="4" fill="#2196F3" class="point" /><circle cx="190" cy="247.68888888888893" r="4" fill="#2196F3" class="point" /><circle cx="330" cy="295.72777777777776" r="4" fill="#2196F3" class="point" /><circle cx="470" cy="279.3611111111111" r="4" fill="#2196F3" class="point" /><circle cx="610" cy="257.6333333333333" r="4" fill="#2196F3" class="point" /><circle cx="750" cy="248.61111111111111" r="4" fill="#2196F3" class="point" /><polyline points="50,295.43888888888887 190,271.50555555555553 330,309.7833333333333 470,300.01666666666665 610,280.0333333333333 750,271.06111111111113" class="line" stroke="#FFC107" /><circle cx="50" cy="295.43888888888887" r="4" fill="#FFC107" class="point" /><circle cx="190" cy="271.50555555555553" r="4" fill="#FFC107" class="point" /><circle cx="330" cy="309.7833333333333" r="4" fill="#FFC107" class="point" /><circle cx="470" cy="300.01666666666665" r="4" fill="#FFC107" class="point" /><circle cx="610" cy="280.0333333333333" r="4" fill="#FFC107" class="point" /><circle cx="750" cy="271.06111111111113" r="4" fill="#FFC107" class="point" /><polyline points="50,337.86111111111114 190,324.1611111111111 330,346.6722222222222 470,340.9111111111111 610,334.2055555555556 750,330.7388888888889" class="line" stroke="#FF5722" /><circle cx="50" cy="337.86111111111114" r="4" fill="#FF5722" class="point" /><circle cx="190" cy="324.1611111111111" r="4" fill="#FF5722" class="point" /><circle cx="330" cy="346.6722222222222" r="4" fill="#FF5722" class="point" /><circle cx="470" cy="340.9111111111111" r="4" fill="#FF5722" class="point" /><circle cx="610" cy="334.2055555555556" r="4" fill="#FF5722" class="point" /><circle cx="750" cy="330.7388888888889" r="4" fill="#FF5722" class="point" /><line x1="55" y1="50" x2="75" y2="50" class="line dashed" stroke="#4CAF50" /><text x="115" y="54" class="label" text-anchor="start">pull(JIT)</text><line x1="55" y1="70" x2="75" y2="70" class="line dashed" stroke="#2196F3" /><text x="115" y="74" class="label" text-anchor="start">stream(JIT)</text><line x1="55" y1="90" x2="75" y2="90" class="line dashed" stroke="#FFC107" /><text x="115" y="94" class="label" text-anchor="start">sax2(JIT)</text><line x1="55" y1="110" x2="75" y2="110" class="line dashed" stroke="#FF5722" /><text x="115" y="114" class="label" text-anchor="start">dom(JIT)</text><line x1="55" y1="130" x2="75" y2="130" class="line" stroke="#4CAF50" /><text x="115" y="134" class="label" text-anchor="start">pull</text><line x1="55" y1="150" x2="75" y2="150" class="line" stroke="#2196F3" /><text x="115" y="154" class="label" text-anchor="start">stream</text><line x1="55" y1="170" x2="75" y2="170" class="line" stroke="#FFC107" /><text x="115" y="174" class="label" text-anchor="start">sax2</text><line x1="55" y1="190" x2="75" y2="190" class="line" stroke="#FF5722" /><text x="115" y="194" class="label" text-anchor="start">dom</text></svg>
